<svg xmlns="http://www.w3.org/2000/svg" viewBox="0 0 356.48 112.54"><title>Shopee logo</title><path d="M416.35,562.56a9.67,9.67,0,0,0,9.22-8.93l0-.59L429,483.65h0s0-.07,0-.11a2,2,0,0,0-2-2H404.88c-.54-14.34-10.85-25.78-23.48-25.78s-22.94,11.43-23.48,25.78H335.76a2,2,0,0,0-2,2q0,.08,0,.16h0l3.14,69.12,0,.87c.48,4.81,4,8.68,8.77,8.86h70.62ZM381.4,462c9.21,0,16.71,8.68,17.06,19.54H364.34C364.69,470.64,372.19,462,381.4,462Z" transform="translate(-333.76 -455.73)" style="fill:#ee4e2c"/><path d="M467,516.52c-7-2.23-10.16-5.17-10.17-9.21.2-4.49,4.39-7.87,10.1-8.08A22.94,22.94,0,0,1,479.7,503a1.35,1.35,0,0,0,2.13-.4c.06-.11.28-.42,1-1.47h0c.69-1,1-1.37,1-1.5.5-.94.5-1.44-.53-2.16a31.17,31.17,0,0,0-4.73-2.45,30.64,30.64,0,0,0-11.93-2.22c-9.16.2-16.33,6.14-16.8,14-.3,5.65,2.59,10.19,8.57,13.53a92.64,92.64,0,0,0,10.6,4c8,2.33,12.07,6.57,11.23,11.51-.77,4.5-5.52,7.53-12.27,7.73a24.66,24.66,0,0,1-14.16-5.11l-.33-.25-.33-.25c-.94-.65-1.62-.65-2.27.33l-1.06,1.61-1,1.53c-.55.82-.46,1.26.35,1.94h0a33.31,33.31,0,0,0,5.45,3.57,31.87,31.87,0,0,0,13.43,3.2,23.41,23.41,0,0,0,9.86-1.86,15.13,15.13,0,0,0,9.19-12.49C488.08,526.71,482.13,521,467,516.52Z" transform="translate(-333.76 -455.73)" style="fill:#ee4e2c"/><path d="M509.44,514.25a17,17,0,0,0-10.1,3.33V494.1c0-.92-.36-1.27-1.27-1.27h-4.25c-1,0-1.27.34-1.27,1.27v54.58c0,.9.26,1.27,1.27,1.27h4.25c.93,0,1.27-.39,1.27-1.27V530.85c0-6.09,4.55-9.92,10.1-9.92s10.1,3.83,10.1,10v17.79c0,1,.25,1.27,1.27,1.27h4.24c1,0,1.27-.24,1.27-1.27V530.84A16.84,16.84,0,0,0,509.44,514.25Z" transform="translate(-333.76 -455.73)" style="fill:#ee4e2c"/><path d="M550,514.29a17.91,17.91,0,1,0,18.27,17.91A18.09,18.09,0,0,0,550,514.29Zm0,29.23a11.33,11.33,0,1,1,11.57-11.33A11.45,11.45,0,0,1,550,543.52Z" transform="translate(-333.76 -455.73)" style="fill:#ee4e2c"/><path d="M688.15,534.61h.09a2.13,2.13,0,0,0,2-2.15c0-.05,0-.1,0-.15s0-.06,0-.13c0-9.89-7.75-17.91-17.32-17.91s-17.32,8-17.32,17.91a18.76,18.76,0,0,0,.13,2.2l0,.23h0a17.46,17.46,0,0,0,4.39,9.47l0,0a18.4,18.4,0,0,0,10.27,5.67l.31.06h0l.47.07a24,24,0,0,0,13.86-2.12,17.17,17.17,0,0,0,2.61-1.61c.26-.19.48-.37.66-.53l.23-.21c1-1,1-1.43.43-2.33-1.34-2.14-2.09-3.18-2.09-3.18-.53-.66-1-.81-1.67-.21-.12.1-.23.17-.28.23a15.73,15.73,0,0,1-13.82,3.29,15.33,15.33,0,0,1-2.63-1,11.08,11.08,0,0,1-6-7.65h25.68ZM662.89,528a10.32,10.32,0,0,1,10-7.22A11.1,11.1,0,0,1,683.13,528Z" transform="translate(-333.76 -455.73)" style="fill:#ee4e2c"/><path d="M591.85,514.2a17.91,17.91,0,0,0-11.36,4v-2.77c0-1-.26-1.27-1.27-1.27h-4c-1,0-1.27.28-1.27,1.27V567c0,.94.26,1.27,1.27,1.27h4c1,0,1.27-.33,1.27-1.27V546a17.93,17.93,0,1,0,11.36-31.78Zm0,29.23a11.35,11.35,0,0,1-11.36-11v-.58a11.36,11.36,0,1,1,11.36,11.63Z" transform="translate(-333.76 -455.73)" style="fill:#ee4e2c"/><path d="M650.13,532.17c0-9.89-7.75-17.91-17.32-17.91s-17.32,8-17.32,17.91a18.77,18.77,0,0,0,.13,2.2l0,.23h0a17.46,17.46,0,0,0,4.39,9.47l0,0a18.4,18.4,0,0,0,10.27,5.67l.31.06h0l.47.07A24,24,0,0,0,645,547.76a17.17,17.17,0,0,0,2.61-1.61c.26-.19.48-.37.66-.53l.23-.21c1-1,1-1.43.43-2.33-1.34-2.14-2.09-3.18-2.09-3.18-.53-.66-1-.81-1.67-.21-.12.1-.23.17-.28.23A15.73,15.73,0,0,1,631,543.22a15.34,15.34,0,0,1-2.63-1,11.08,11.08,0,0,1-6-7.65h25.77a2.13,2.13,0,0,0,2-2.15c0-.05,0-.1,0-.15S650.13,532.25,650.13,532.17ZM622.78,528a10.32,10.32,0,0,1,10-7.22A11.1,11.1,0,0,1,643,528Z" transform="translate(-333.76 -455.73)" style="fill:#ee4e2c"/><path d="M398.95,535.75a13.94,13.94,0,0,1-8.66,11.37,21.84,21.84,0,0,1-9.24,1.58,30,30,0,0,1-12.59-3.24,31.43,31.43,0,0,1-5.05-3.45c-.36-.3-.54-.56-.2-1s1.81-2.64,2-3a.81.81,0,0,1,1.27-.13l.63.48a24.4,24.4,0,0,0,13.93,5.3c6.76-.09,11.67-3.1,12.54-7.77,1-5.14-3.14-9.55-11-12a95.17,95.17,0,0,1-10-4q-8.25-4.81-7.7-12.59c.56-7.17,7.25-12.55,15.75-12.58A28.8,28.8,0,0,1,391.84,497a29.53,29.53,0,0,1,4.37,2.37.86.86,0,0,1,.3,1.25c-.34.56-1.33,2.11-1.74,2.76-.29.44-.66.49-1.17.17a23.55,23.55,0,0,0-12.84-4c-5.8.11-10.18,3.54-10.47,8.24-.08,4.24,3.17,7.32,10.06,9.67C394.58,522,400,527.38,398.95,535.75Z" transform="translate(-333.76 -455.73)" style="fill:#fff"/></svg>