<?xml version="1.0" encoding="utf-8"?>
<!-- Generator: Adobe Illustrator 26.1.0, SVG Export Plug-In . SVG Version: 6.00 Build 0)  -->
<svg version="1.1" id="Layer_1" xmlns="http://www.w3.org/2000/svg" xmlns:xlink="http://www.w3.org/1999/xlink" x="0px" y="0px"
	 viewBox="0 0 313.3 309.1" style="enable-background:new 0 0 313.3 309.1;" xml:space="preserve">
<style type="text/css">
	.st0{fill:#1A1B1E;stroke:#231F20;stroke-miterlimit:10;}
	.st1{fill:#FFFFFF;}
	.st2{fill:#1A1B1E;}
</style>
<rect x="0.5" y="0.5" class="st0" width="312.3" height="308.6"/>
<path class="st1" d="M35.5,245.7v-10l20.5-7.5c1.4-0.4,2.6-1.2,3.6-2.2c1-1.2,1.6-2.7,1.5-4.3V77.5c0.1-1.5-0.4-3.1-1.4-4.3
	c-1-1-2.3-1.8-3.7-2.1l-20.5-6.8v-9.7h68.7l44.7,126.3l6.7,23.2h2.1l51.6-149.5h67.7v9.7l-20.3,6.8c-1.4,0.4-2.7,1.2-3.7,2.2
	c-1.1,1.1-1.7,2.6-1.6,4.2v145.1c-0.1,1.6,0.4,3.2,1.5,4.4c1.1,1,2.4,1.8,3.9,2.3l20.3,6.5v10H198v-10l20.3-6.5
	c1.4-0.4,2.7-1.2,3.8-2.2c1.1-1.2,1.6-2.8,1.5-4.5V69.1h-2.5l-6.3,19.7l-45.5,127.3l-12.7,29.6H143L87.4,88.9l-6.1-19.9h-2.1v152.7
	c-0.1,1.6,0.4,3.2,1.5,4.3c1,1,2.3,1.7,3.6,2.2l20.1,7.5v10H35.5z"/>
<rect x="0.5" y="138.1" class="st2" width="312.3" height="32.5"/>
<path class="st1" d="M26,165.2v-1.2l2.4-0.9c0.2,0,0.3-0.1,0.4-0.3c0.1-0.1,0.2-0.3,0.2-0.5v-17.3c0-0.2,0-0.4-0.2-0.5
	c-0.1-0.1-0.3-0.2-0.4-0.2l-2.4-0.8v-1.2h7.9l5.2,15.1l0.8,2.8h0.2l6-17.9h7.8v1.2l-2.3,0.8c-0.2,0.1-0.3,0.1-0.4,0.3
	c-0.1,0.1-0.2,0.3-0.2,0.5v17.4c0,0.2,0,0.4,0.2,0.5c0.1,0.1,0.3,0.2,0.5,0.3l2.3,0.8v1.2h-9.2V164l2.3-0.8c0.2,0,0.3-0.1,0.4-0.3
	c0.1-0.2,0.2-0.3,0.2-0.5v-18.4h-0.3l-0.7,2.4l-5.2,15.3l-1.4,3.6h-1.6L32,146.4l-0.7-2.4H31v18.3c0,0.2,0,0.4,0.2,0.5
	c0.1,0.1,0.3,0.2,0.4,0.3l2.3,0.9v1.2L26,165.2z"/>
<path class="st1" d="M57.9,165.2v-1.2l1.6-0.7c0.4-0.2,0.6-0.5,0.8-0.9l6.3-16.7l1.8-3.8h1.7l7.8,20.5c0.1,0.2,0.2,0.4,0.3,0.5
	c0.1,0.2,0.3,0.3,0.4,0.4l1.6,0.7v1.2h-8.2v-1.2l2.6-0.9l-5.5-14.7l-0.6-2.2h-0.3L62.2,163l2.6,1v1.2L57.9,165.2z M64.1,157.2
	l0.8-2.2h7.1l0.8,2.2H64.1z"/>
<path class="st1" d="M84.3,165.2v-1.2l2.4-0.8c0.2,0,0.3-0.1,0.4-0.3c0.1-0.2,0.2-0.3,0.2-0.5v-17.4c0-0.2-0.1-0.4-0.2-0.5
	c-0.1-0.1-0.3-0.2-0.4-0.2l-2.4-0.8v-1.2h9c1.4,0,2.8,0.1,4.1,0.5c0.9,0.3,1.8,0.7,2.5,1.4c0.5,0.5,1,1.2,1.2,1.9
	c0.2,0.7,0.3,1.4,0.3,2.1c0,1.1-0.2,2.2-0.8,3.2c-0.5,0.8-1.2,1.6-2,2.1c-0.7,0.5-1.5,0.8-2.3,1.1l-2.5,1.1l-3.5-0.8l0.1-1.7
	c0.2,0,0.4,0.1,0.7,0.1c0.3,0,0.7,0.1,1.1,0.1H93c1,0,1.9-0.2,2.7-0.6c0.7-0.4,1.3-1,1.6-1.6c0.4-0.7,0.5-1.5,0.5-2.2
	c0.1-1.3-0.4-2.6-1.3-3.5c-1.1-0.8-2.5-1.2-3.9-1.1h-2.3v18.2c0,0.2,0,0.4,0.2,0.5c0.1,0.1,0.3,0.2,0.4,0.3l2.4,0.8v1.2L84.3,165.2z
	 M105.7,165.2H102c-0.5,0-1,0-1.5-0.2c-0.3-0.1-0.6-0.3-0.9-0.6c-0.2-0.3-0.5-0.7-0.9-1.2l-5.5-7.9l3.1-1l5.8,8
	c0.2,0.2,0.3,0.4,0.5,0.6c0.2,0.2,0.4,0.4,0.7,0.5l2.4,0.7L105.7,165.2z"/>
<path class="st1" d="M109.5,165.2v-1.2l2.4-0.8c0.2,0,0.3-0.1,0.4-0.3c0.1-0.2,0.2-0.3,0.2-0.5v-17.4c0-0.2-0.1-0.4-0.2-0.5
	c-0.1-0.1-0.3-0.2-0.4-0.2l-2.4-0.8v-1.2h9.1v1.2l-2.3,0.8c-0.2,0-0.3,0.1-0.4,0.3c-0.1,0.1-0.2,0.3-0.2,0.5v9.1l8.7-9.8l-1.4-0.9
	v-1.2h7.1v1.2l-2.4,0.8c-0.2,0.1-0.4,0.2-0.6,0.3c-0.2,0.2-0.5,0.3-0.7,0.6l-6.3,6.9l7.4,10.3c0.2,0.2,0.3,0.4,0.5,0.6
	c0.2,0.2,0.4,0.3,0.6,0.4l2.2,0.8v1.1h-7.7v-1.1l1.2-0.7l-6.5-9.1l-2.1,1.3v6.9c0,0.2,0,0.4,0.2,0.5c0.1,0.1,0.3,0.2,0.4,0.3
	l2.3,0.8v1.2L109.5,165.2z"/>
<path class="st1" d="M147.3,165.2v-1.2l2.4-0.8c0.2-0.1,0.3-0.1,0.4-0.3c0.1-0.2,0.2-0.3,0.2-0.5v-17.4c0-0.2,0-0.4-0.2-0.5
	c-0.1-0.1-0.3-0.2-0.4-0.2l-2.4-0.8v-1.2h8.9c1.4,0,2.8,0.2,4.1,0.6c1.2,0.4,2.2,1.1,3,2c0.8,1,1.2,2.3,1.1,3.6c0,1.4-0.3,2.8-1,4
	c-0.6,1.1-1.5,2-2.6,2.6c-1.2,0.6-2.5,0.9-3.9,0.9c-0.6,0-1.3-0.1-1.8-0.4c-0.6-0.2-1.2-0.5-1.7-0.8v-1.2c0.5,0.1,0.9,0.2,1.4,0.2
	c0.6,0.1,1.2,0.1,1.7,0.1c0.8,0,1.6-0.1,2.3-0.5c0.5-0.3,1-0.8,1.3-1.3c0.3-0.5,0.5-1,0.6-1.6c0.3-1.2,0.2-2.5-0.3-3.7
	c-0.3-0.8-0.9-1.4-1.6-1.9c-1-0.5-2.1-0.8-3.3-0.7h-2v18.2c0,0.2,0,0.4,0.2,0.5c0.1,0.1,0.3,0.2,0.4,0.3l2.5,0.8v1.2L147.3,165.2z"
	/>
<path class="st1" d="M169.8,165.2v-1.2l2.4-0.8c0.2,0,0.3-0.1,0.4-0.3c0.1-0.2,0.2-0.3,0.2-0.5v-17.4c0-0.2-0.1-0.4-0.2-0.5
	c-0.1-0.1-0.3-0.2-0.4-0.2l-2.4-0.8v-1.2h17.1v5.7h-1.8l-0.6-3.1c0-0.2-0.1-0.3-0.2-0.4c-0.1-0.1-0.3-0.2-0.4-0.2H176v8.1h4.7
	c0.2,0,0.3,0,0.4-0.1c0.1-0.1,0.2-0.3,0.2-0.4l0.6-2.5h1.5v8.2h-1.5l-0.6-2.5c0-0.2-0.1-0.3-0.2-0.4c-0.1-0.1-0.3-0.2-0.4-0.1H176v9
	h9.1c0.2,0,0.3-0.1,0.4-0.2c0.1-0.1,0.2-0.3,0.2-0.4l0.6-3.5h1.8v6.1H169.8z"/>
<path class="st1" d="M194,165.2v-1.2l2.4-0.8c0.2,0,0.3-0.1,0.4-0.3c0.1-0.1,0.2-0.3,0.2-0.5v-17.4c0-0.2,0-0.4-0.2-0.5
	c-0.1-0.1-0.3-0.2-0.4-0.2l-2.4-0.8v-1.2h10.1c0.9,0,1.9,0.1,2.8,0.3c1,0.2,2.1,0.6,3,1.1c1,0.5,1.9,1.2,2.7,2.1
	c0.8,1,1.5,2.1,1.9,3.3c0.5,1.5,0.7,3.1,0.7,4.8c0.1,2.2-0.4,4.5-1.5,6.4c-0.9,1.6-2.3,2.9-4,3.7c-1.8,0.8-3.7,1.2-5.6,1.2
	L194,165.2z M200.2,144.2v19.1h3.9c2.6,0,4.5-0.8,5.7-2.4c1.3-1.9,1.9-4.3,1.8-6.6c0.1-1.9-0.3-3.7-1-5.4c-0.6-1.4-1.6-2.6-2.9-3.5
	c-1.3-0.8-2.9-1.3-4.4-1.2L200.2,144.2z"/>
<path class="st1" d="M231.4,165.8c-2,0.1-4-0.4-5.8-1.5c-1.6-1-2.9-2.4-3.6-4.2c-0.9-2-1.3-4.2-1.2-6.4c0-2.1,0.4-4.2,1.3-6.2
	c0.8-1.7,2.1-3.2,3.7-4.2c1.7-1.1,3.7-1.6,5.7-1.6c2.1-0.1,4.2,0.5,6,1.6c1.6,1,2.8,2.5,3.5,4.3c0.8,1.9,1.2,4,1.1,6.1
	c0,1.5-0.2,3-0.6,4.4c-0.4,1.4-1,2.7-1.9,3.9c-0.9,1.2-2,2.1-3.3,2.7C234.7,165.5,233.1,165.8,231.4,165.8z M231.7,163.9
	c1.4,0,2.7-0.4,3.8-1.2c1.1-0.9,1.9-2.1,2.3-3.4c0.5-1.6,0.8-3.3,0.8-5c0-1.9-0.2-3.8-0.8-5.6c-0.4-1.4-1.3-2.7-2.4-3.7
	c-1.2-0.9-2.7-1.4-4.1-1.3c-1.4-0.1-2.8,0.4-3.9,1.3c-1,0.9-1.8,2.1-2.2,3.4c-0.5,1.5-0.7,3.1-0.7,4.8c0,1.9,0.2,3.8,0.8,5.6
	c0.4,1.5,1.3,2.8,2.4,3.8C228.7,163.5,230.2,163.9,231.7,163.9z"/>
<path class="st1" d="M247.7,165.2v-1.2l2.4-0.9c0.2-0.1,0.3-0.1,0.4-0.3c0.1-0.1,0.2-0.3,0.2-0.5v-17.3c0-0.2-0.1-0.4-0.2-0.5
	c-0.1-0.1-0.3-0.2-0.4-0.3l-2.5-0.8v-1.2h6.4l10.7,15.8l1.2,2.1h0.2v-15.1c0-0.2,0-0.4-0.2-0.5c-0.1-0.1-0.3-0.2-0.4-0.2l-2.3-0.9
	v-1.2h8v1.2l-2.4,0.9c-0.1,0.1-0.3,0.1-0.4,0.2c-0.1,0.1-0.2,0.3-0.2,0.5v16.6l-0.5,3.7h-1.8l-11.6-17.2l-1.3-2.1h-0.2v16.2
	c0,0.2,0.1,0.4,0.2,0.5c0.1,0.1,0.2,0.2,0.4,0.3l2.3,0.9v1.2L247.7,165.2z"/>
<path class="st1" d="M292.3,162.8v-5.5c0-0.2,0-0.4-0.2-0.5c-0.1-0.1-0.3-0.2-0.4-0.2l-3-0.8v-1.2h9.3v1.2l-2,0.8
	c-0.1,0.1-0.3,0.1-0.4,0.2c-0.1,0.1-0.2,0.3-0.2,0.5v2.6c0,1,0,1.9,0,2.6s0,1.3,0.1,1.7c-1.3,0.5-2.6,0.8-3.9,1.1
	c-1.5,0.3-3,0.5-4.5,0.5c-1.9,0-3.7-0.5-5.3-1.4c-1.6-0.9-3-2.3-3.9-4c-1.9-4.1-1.9-8.8,0-12.9c0.9-1.7,2.2-3.2,3.9-4.2
	c1.7-1,3.7-1.5,5.6-1.5c0.9,0,1.8,0,2.7,0.1c0.9,0.1,1.7,0.2,2.6,0.4s1.7,0.4,2.6,0.6v5.9h-1.8l-0.6-3.3c0-0.2-0.1-0.3-0.3-0.4
	c-0.1-0.1-0.3-0.2-0.4-0.2c-0.8-0.4-1.6-0.6-2.4-0.8c-0.9-0.2-1.8-0.3-2.7-0.3c-2.8-0.1-5.3,1.6-6.2,4.1c-0.7,1.7-1,3.5-0.9,5.3
	c0,1.9,0.3,3.8,0.9,5.5c0.5,1.5,1.5,2.8,2.7,3.8c1.2,0.9,2.7,1.4,4.2,1.4c0.6,0,1.3-0.1,1.9-0.2c0.5-0.1,1-0.3,1.5-0.4
	C291.7,163,292.1,162.9,292.3,162.8z"/>
</svg>
