<?xml version="1.0" encoding="utf-8"?>
<!-- Generator: Adobe Illustrator 26.1.0, SVG Export Plug-In . SVG Version: 6.00 Build 0)  -->
<svg version="1.1" id="f1ddadbe-de5b-11ec-83f9-0242ac180004"
	 xmlns="http://www.w3.org/2000/svg" xmlns:xlink="http://www.w3.org/1999/xlink" x="0px" y="0px" viewBox="0 0 300 300"
	 style="enable-background:new 0 0 300 300;" xml:space="preserve">
<style type="text/css">
	.st0{fill:#FFFFFF;}
</style>
<g>
	<path d="M35.7,238.3v-9.2l19-6.9c1.3-0.4,2.4-1.1,3.3-2c0.9-1,1.4-2.2,1.4-3.6c0-0.1,0-0.2,0-0.4V83c0-0.1,0-0.2,0-0.4
		c0-1.4-0.5-2.6-1.3-3.6c-0.9-0.9-2-1.6-3.3-2l-19.1-6.3v-9h63.4l41.2,116.6l6.1,21.4h2l47.6-138h62.5v9L240,77
		c-1.3,0.4-2.5,1.1-3.5,2c-1,0.9-1.6,2.2-1.6,3.7c0,0.1,0,0.2,0,0.2v134c0,0.1,0,0.3,0,0.4c0,1.4,0.5,2.7,1.4,3.6
		c1,0.9,2.2,1.7,3.5,2.1l18.8,6v9.2h-72.9V229l18.7-6c1.4-0.4,2.6-1.1,3.5-2c0.9-1,1.4-2.3,1.4-3.7c0-0.1,0-0.3,0-0.4V75.1H207
		l-5.8,18.2l-42,117.6l-11.7,27.3h-12.6L83.7,93.5L78,75.2h-2v141c0,0.1,0,0.3,0,0.4c0,1.4,0.5,2.6,1.4,3.6c0.9,0.9,2,1.5,3.2,2
		l18.7,6.9v9.2L35.7,238.3z"/>
	<path class="st0" d="M14,134.6v32.5h272v-32.5H14z"/>
	<path d="M14,161.7v-1.2l2.4-0.9c0.2,0,0.3-0.1,0.4-0.3c0.1-0.1,0.2-0.3,0.2-0.5l0,0v-17.3l0,0c0-0.2-0.1-0.3-0.2-0.5
		c-0.1-0.1-0.3-0.2-0.4-0.2L14,140v-1.2h7.9l5.2,15.1l0.8,2.8h0.2l6-17.9h7.8v1.2l-2.3,0.8c-0.2,0.1-0.3,0.1-0.4,0.3
		c-0.1,0.1-0.2,0.3-0.2,0.5l0,0V159c0,0,0,0,0,0.1c0,0.2,0.1,0.3,0.2,0.5c0.1,0.1,0.3,0.2,0.4,0.3l2.3,0.8v1.2h-9.2v-1.2l2.3-0.8
		c0.2,0,0.3-0.1,0.4-0.3c0.1-0.1,0.2-0.3,0.2-0.5c0,0,0,0,0-0.1v-18.4h-0.3l-0.7,2.4l-5.2,15.3l-1.4,3.6h-1.6l-6.4-19l-0.7-2.4H19
		v18.3l0,0c0,0.2,0.1,0.3,0.2,0.5c0.1,0.1,0.3,0.2,0.4,0.3l2.3,0.9v1.2C21.9,161.7,14,161.7,14,161.7z"/>
	<path d="M45.9,161.7v-1.2l1.6-0.7c0.4-0.2,0.6-0.5,0.8-0.9l6.3-16.7l1.8-3.8h1.7l7.8,20.5c0.1,0.2,0.2,0.4,0.3,0.5
		c0.1,0.2,0.3,0.3,0.4,0.4l1.6,0.7v1.2H60v-1.2l2.6-0.9l-5.5-14.7l-0.6-2.2h-0.3l-6,16.8l2.6,1v1.2H45.9z M52.1,153.7l0.8-2.2H60
		l0.8,2.2H52.1z"/>
	<path d="M72.3,161.7v-1.2l2.4-0.8c0.2,0,0.3-0.1,0.4-0.3c0.1-0.1,0.2-0.3,0.2-0.5c0,0,0,0,0-0.1v-17.4l0,0c0-0.2-0.1-0.3-0.2-0.5
		c-0.1-0.1-0.3-0.2-0.4-0.2l-2.4-0.8v-1.2h9c0.1,0,0.3,0,0.4,0c1.3,0,2.6,0.2,3.8,0.5c0.9,0.3,1.7,0.7,2.4,1.3
		c0.5,0.5,0.9,1.1,1.2,1.8c0.2,0.6,0.3,1.4,0.3,2.1c0,0.1,0,0.1,0,0.2c0,1.1-0.3,2.2-0.8,3.1c-0.5,0.8-1.2,1.5-2,2.1
		c-0.7,0.5-1.5,0.8-2.3,1.1l-2.5,1.1l-3.5-0.8l0.1-1.7c0.2,0,0.4,0.1,0.6,0.1c0.4,0,0.7,0.1,1.1,0.1H81c0.1,0,0.1,0,0.2,0
		c0.9,0,1.8-0.2,2.6-0.6c0.7-0.4,1.2-0.9,1.6-1.6c0.3-0.7,0.5-1.4,0.5-2.2l0,0c0-0.1,0-0.3,0-0.4c0-1.2-0.5-2.3-1.3-3.1
		c-1-0.7-2.2-1.1-3.5-1.1c-0.1,0-0.3,0-0.4,0h-2.3v18.2c0,0,0,0,0,0.1c0,0.2,0.1,0.4,0.2,0.5c0.1,0.1,0.3,0.2,0.4,0.3l2.4,0.8v1.2
		L72.3,161.7z M93.7,161.7H90c-0.1,0-0.1,0-0.2,0c-0.5,0-1-0.1-1.4-0.2c-0.3-0.1-0.6-0.3-0.8-0.6c-0.2-0.3-0.5-0.7-0.9-1.3l-5.5-7.9
		l3.1-1l5.8,8c0.2,0.2,0.3,0.4,0.5,0.6c0.2,0.2,0.4,0.4,0.7,0.5l2.4,0.7V161.7z"/>
	<path d="M97.5,161.7v-1.2l2.4-0.8c0.2,0,0.3-0.1,0.4-0.3c0.1-0.1,0.2-0.3,0.2-0.5c0,0,0,0,0-0.1v-17.4l0,0c0-0.2-0.1-0.3-0.2-0.5
		c-0.1-0.1-0.3-0.2-0.4-0.2l-2.4-0.8v-1.2h9.1v1.2l-2.3,0.8c-0.2,0-0.3,0.1-0.4,0.3c-0.1,0.1-0.2,0.3-0.2,0.5l0,0v9.1l8.7-9.8
		l-1.4-0.9v-1.2h7.1v1.2l-2.4,0.8c-0.2,0.1-0.5,0.2-0.7,0.3s-0.5,0.3-0.6,0.5l-6.3,6.9l7.4,10.3c0.2,0.2,0.3,0.4,0.5,0.6
		s0.4,0.3,0.6,0.4l2.2,0.8v1.1h-7.7v-1.1l1.2-0.7l-6.5-9.1l-2.1,1.3v6.9c0,0,0,0,0,0.1c0,0.2,0.1,0.3,0.2,0.5
		c0.1,0.1,0.3,0.2,0.4,0.3l2.4,0.8v1.2L97.5,161.7z"/>
	<path d="M135.3,161.7v-1.2l2.4-0.8c0.2-0.1,0.3-0.1,0.4-0.3c0.1-0.1,0.2-0.3,0.2-0.5c0,0,0,0,0-0.1v-17.4l0,0
		c0-0.2-0.1-0.3-0.2-0.5c-0.1-0.1-0.3-0.2-0.4-0.2l-2.4-0.8v-1.2h8.9h0.1c1.4,0,2.8,0.2,4.1,0.7c1.1,0.4,2.1,1,2.9,2
		c0.7,0.9,1.1,2.1,1.1,3.3c0,0.1,0,0.2,0,0.3v0.1c0,1.4-0.4,2.8-1,3.9s-1.5,2-2.6,2.6c-1.1,0.6-2.4,0.9-3.7,0.9c-0.1,0-0.1,0-0.2,0
		c-0.7,0-1.3-0.2-1.9-0.4c-0.6-0.2-1.2-0.5-1.7-0.8v-1.2c0.4,0.1,0.9,0.2,1.4,0.2c0.6,0.1,1.2,0.1,1.7,0.1c0.1,0,0.1,0,0.2,0
		c0.8,0,1.5-0.2,2.1-0.6c0.5-0.3,1-0.8,1.3-1.3s0.5-1,0.6-1.6c0.1-0.4,0.2-0.9,0.2-1.4c0-0.8-0.2-1.7-0.5-2.4
		c-0.3-0.8-0.9-1.4-1.6-1.8c-0.9-0.5-1.9-0.7-3-0.7c-0.1,0-0.2,0-0.4,0h-2v18.2c0,0,0,0,0,0.1c0,0.2,0.1,0.4,0.2,0.5
		c0.1,0.1,0.3,0.2,0.4,0.3l2.5,0.8v1.2L135.3,161.7z"/>
	<path d="M157.8,161.7v-1.2l2.4-0.8c0.2,0,0.3-0.1,0.4-0.3c0.1-0.1,0.2-0.3,0.2-0.5c0,0,0,0,0-0.1v-17.4l0,0c0-0.2-0.1-0.3-0.2-0.5
		c-0.1-0.1-0.3-0.2-0.4-0.2l-2.4-0.8v-1.2h17.1v5.7h-1.8l-0.6-3.1c0-0.2-0.1-0.3-0.2-0.4c-0.1-0.1-0.2-0.2-0.4-0.2l0,0H164v8.1h4.7
		c0,0,0,0,0.1,0s0.3,0,0.4-0.1c0.1-0.1,0.2-0.3,0.2-0.4l0.6-2.5h1.5v8.2H170l-0.6-2.5c0-0.2-0.1-0.3-0.2-0.5
		c-0.1-0.1-0.2-0.2-0.4-0.2l0,0h-4.7v9h9.1l0,0c0.2,0,0.3-0.1,0.4-0.2c0.1-0.1,0.2-0.3,0.2-0.4l0.6-3.5h1.8v6.1L157.8,161.7
		L157.8,161.7L157.8,161.7z"/>
	<path d="M182,161.7v-1.2l2.4-0.8c0.2-0.1,0.3-0.1,0.4-0.3c0.1-0.1,0.2-0.3,0.2-0.5c0,0,0,0,0-0.1v-17.4c0,0,0,0,0-0.1
		c0-0.2-0.1-0.3-0.2-0.5c-0.1-0.1-0.2-0.2-0.4-0.2l-2.4-0.8v-1.2h10.1c1,0,2,0.1,2.9,0.3c1,0.2,2,0.6,3,1.1s1.9,1.2,2.6,2.1
		c0.8,0.9,1.5,2,1.9,3.3c0.5,1.4,0.7,2.9,0.7,4.5c0,0.1,0,0.2,0,0.4c0,0.1,0,0.3,0,0.5c0,2.2-0.6,4.2-1.5,6
		c-0.9,1.6-2.3,2.8-3.9,3.6c-1.7,0.8-3.5,1.2-5.5,1.2c-0.1,0-0.1,0-0.2,0L182,161.7z M188.2,140.7v19.1h3.9c2.6,0,4.5-0.8,5.7-2.4
		c1.1-1.7,1.8-3.7,1.8-6c0-0.2,0-0.5,0-0.7c0-0.1,0-0.2,0-0.4c0-1.8-0.4-3.5-1-5.1c-0.6-1.4-1.6-2.6-2.9-3.4
		c-1.2-0.8-2.7-1.3-4.3-1.3c-0.1,0-0.1,0-0.2,0L188.2,140.7z"/>
	<path d="M219.4,162.3c-0.1,0-0.2,0-0.3,0c-2,0-3.9-0.5-5.5-1.5c-1.5-1-2.8-2.4-3.5-4.1c-0.8-1.8-1.3-3.9-1.3-6.1c0-0.1,0-0.3,0-0.4
		s0-0.1,0-0.2c0-2.1,0.5-4.2,1.3-6c0.8-1.7,2-3.1,3.6-4.1s3.5-1.6,5.5-1.6c0.1,0,0.2,0,0.3,0s0.3,0,0.4,0c2.1,0,4,0.6,5.6,1.6
		c1.5,1,2.7,2.5,3.4,4.2c0.7,1.8,1.2,3.8,1.2,5.9c0,0.1,0,0.2,0,0.3l0,0c0,1.6-0.2,3.1-0.6,4.5c-0.4,1.4-1.1,2.7-1.9,3.8
		c-0.8,1.1-2,2-3.2,2.7c-1.4,0.7-3,1-4.6,1C219.6,162.3,219.5,162.3,219.4,162.3L219.4,162.3z M219.7,160.4c0.1,0,0.1,0,0.2,0
		c1.4,0,2.6-0.5,3.6-1.2c1-0.9,1.8-2,2.3-3.3c0.5-1.5,0.8-3.1,0.8-4.8c0-0.1,0-0.2,0-0.3s0-0.2,0-0.3c0-1.9-0.3-3.7-0.8-5.4
		c-0.4-1.4-1.3-2.6-2.4-3.5c-1.1-0.8-2.4-1.3-3.9-1.3c-0.1,0-0.2,0-0.3,0s-0.2,0-0.2,0c-1.4,0-2.7,0.5-3.6,1.3
		c-1,0.9-1.8,2.1-2.2,3.4c-0.5,1.4-0.7,3-0.7,4.6c0,0.1,0,0.1,0,0.2c0,0.1,0,0.2,0,0.3c0,1.9,0.3,3.7,0.8,5.4
		c0.4,1.4,1.3,2.7,2.4,3.6C216.8,160,218.1,160.5,219.7,160.4C219.5,160.4,219.6,160.4,219.7,160.4L219.7,160.4z"/>
	<path d="M235.7,161.7v-1.2l2.4-0.9c0.2-0.1,0.3-0.2,0.4-0.3c0.1-0.1,0.2-0.3,0.2-0.5l0,0v-17.3l0,0c0-0.2-0.1-0.3-0.2-0.5
		c-0.1-0.1-0.3-0.2-0.4-0.3l-2.5-0.8v-1.2h6.4l10.7,15.8l1.2,2.1h0.2v-15.1c0,0,0,0,0-0.1c0-0.2-0.1-0.3-0.2-0.4
		c-0.1-0.1-0.3-0.2-0.4-0.2l-2.3-0.9v-1.2h8v1.2l-2.4,0.9c-0.2,0.1-0.3,0.1-0.4,0.3c-0.1,0.1-0.2,0.3-0.2,0.4l0,0v16.6l-0.5,3.7
		h-1.8l-11.6-17.2l-1.3-2.1h-0.2v16.2c0,0,0,0,0,0.1c0,0.2,0.1,0.3,0.2,0.5c0.1,0.1,0.2,0.2,0.4,0.3l2.3,0.9v1.2H235.7z"/>
	<path d="M280.3,159.3v-5.5c0,0,0,0,0-0.1c0-0.2-0.1-0.3-0.2-0.5c-0.1-0.1-0.2-0.2-0.4-0.2l-3-0.8V151h9.3v1.2l-2,0.8
		c-0.1,0.1-0.3,0.2-0.4,0.3s-0.2,0.3-0.2,0.5c0,0,0,0,0,0.1v2.6c0,1,0,1.9,0,2.6c0,0.7,0,1.3,0.1,1.7c-1.1,0.4-2.4,0.8-3.7,1.1
		c-1.6,0.4-3.1,0.5-4.7,0.5l0,0H275c-1.9,0-3.7-0.5-5.3-1.4c-1.6-0.9-2.9-2.3-3.8-3.9c-0.9-1.9-1.5-4.2-1.5-6.5s0.5-4.6,1.5-6.5
		c0.9-1.7,2.2-3.1,3.8-4.1c1.6-1,3.5-1.5,5.5-1.5c0.1,0,0.1,0,0.2,0h0.1c0.9,0,1.8,0,2.7,0.1c0.7,0.1,1.6,0.2,2.4,0.4
		c0.8,0.2,1.7,0.4,2.6,0.6v5.9h-1.8l-0.6-3.3c0-0.2-0.1-0.3-0.3-0.4c-0.1-0.1-0.3-0.2-0.4-0.2c-0.7-0.3-1.5-0.6-2.4-0.8
		s-1.8-0.3-2.8-0.3c-0.1,0-0.1,0-0.2,0c-2.7,0-5.1,1.7-6,4.1c-0.6,1.5-0.9,3.1-0.9,4.9c0,0.2,0,0.3,0,0.5c0,0.1,0,0.2,0,0.2
		c0,1.9,0.3,3.7,1,5.4c0.5,1.4,1.4,2.7,2.6,3.6c1.1,0.9,2.5,1.4,4.1,1.4c0.1,0,0.1,0,0.2,0c0,0,0,0,0.1,0c0.6,0,1.3-0.1,1.9-0.2
		c0.5-0.1,1.1-0.3,1.5-0.5C279.7,159.5,280.1,159.4,280.3,159.3z"/>
</g>
</svg>
