<?xml version="1.0" encoding="utf-8"?>
<!-- Generator: Adobe Illustrator 26.1.0, SVG Export Plug-In . SVG Version: 6.00 Build 0)  -->
<svg version="1.1" id="Layer_1" xmlns="http://www.w3.org/2000/svg" xmlns:xlink="http://www.w3.org/1999/xlink" x="0px" y="0px"
	 viewBox="0 0 285 96" style="enable-background:new 0 0 285 96;" xml:space="preserve">
<style type="text/css">
	.st0{fill-rule:evenodd;clip-rule:evenodd;fill:#FF9900;}
	.st1{fill-rule:evenodd;clip-rule:evenodd;}
</style>
<g>
	<path class="st0" d="M176.8,73.7c-16.5,12.2-40.5,18.7-61.2,18.7c-29,0-55-10.7-74.8-28.5c-1.5-1.4-0.2-3.3,1.7-2.2
		c21.3,12.4,47.6,19.8,74.8,19.8c18.3,0,38.5-3.8,57.1-11.7C177.2,68.7,179.5,71.7,176.8,73.7L176.8,73.7z"/>
	<path class="st0" d="M183.7,65.8c-2.1-2.7-14-1.3-19.3-0.6c-1.6,0.2-1.9-1.2-0.4-2.2c9.5-6.7,25-4.7,26.8-2.5s-0.5,17.8-9.4,25.2
		c-1.4,1.1-2.7,0.5-2.1-1C181.3,79.7,185.8,68.6,183.7,65.8z"/>
	<path class="st1" d="M164.7,16V9.5c0-1,0.7-1.6,1.6-1.6h29c0.9,0,1.7,0.7,1.7,1.6V15c0,0.9-0.8,2.1-2.2,4.1l-15,21.4
		c5.6-0.1,11.5,0.7,16.5,3.5c1.1,0.6,1.4,1.6,1.5,2.5v6.9c0,1-1,2.1-2.1,1.5c-8.9-4.7-20.8-5.2-30.6,0.1c-1,0.5-2.1-0.5-2.1-1.5
		v-6.6c0-1,0-2.8,1.1-4.4l17.4-24.9h-15.1C165.5,17.6,164.7,16.9,164.7,16L164.7,16z M59,56.3h-8.8c-0.8-0.1-1.5-0.7-1.6-1.5V9.6
		c0-0.9,0.8-1.6,1.7-1.6h8.2c0.9,0,1.5,0.7,1.6,1.5v5.9h0.2C62.4,9.7,66.5,7,71.9,7c5.5,0,9,2.7,11.4,8.4c2.1-5.7,7-8.4,12.2-8.4
		c3.7,0,7.7,1.5,10.2,5c2.8,3.8,2.2,9.3,2.2,14.2v28.6c0,0.9-0.8,1.6-1.7,1.6h-8.7c-0.9-0.1-1.6-0.8-1.6-1.6v-24
		c0-1.9,0.2-6.7-0.2-8.5c-0.7-3-2.6-3.9-5.2-3.9c-2.1,0-4.4,1.4-5.3,3.7s-0.8,6.1-0.8,8.7v24c0,0.9-0.8,1.6-1.7,1.6h-8.8
		c-0.9-0.1-1.6-0.8-1.6-1.6v-24c0-5,0.8-12.5-5.4-12.5c-6.3,0-6.1,7.2-6.1,12.5v24C60.7,55.6,60,56.3,59,56.3L59,56.3z M222,7
		c13.1,0,20.2,11.2,20.2,25.5c0,13.8-7.8,24.8-20.2,24.8c-12.8,0-19.8-11.2-19.8-25.2C202.1,18,209.2,7,222,7L222,7z M222,16.3
		c-6.5,0-6.9,8.9-6.9,14.4S215,48,221.9,48c6.8,0,7.2-9.5,7.2-15.3c0-3.8-0.2-8.4-1.3-12C226.8,17.5,224.8,16.3,222,16.3L222,16.3z
		 M259.1,56.3h-8.8c-0.9-0.1-1.6-0.8-1.6-1.6V9.4c0.1-0.8,0.8-1.5,1.7-1.5h8.2c0.8,0,1.4,0.6,1.6,1.3v6.9h0.2
		c2.5-6.2,5.9-9.1,12-9.1c3.9,0,7.8,1.4,10.3,5.3c2.3,3.6,2.3,9.7,2.3,14.1v28.5c-0.1,0.8-0.8,1.4-1.7,1.4h-8.8
		c-0.8-0.1-1.5-0.7-1.6-1.4V30.3c0-5,0.6-12.2-5.5-12.2c-2.1,0-4.1,1.4-5.1,3.6c-1.2,2.8-1.4,5.5-1.4,8.6v24.4
		C260.8,55.6,260,56.3,259.1,56.3L259.1,56.3z M141.6,34.7c0,3.4,0.1,6.3-1.6,9.4c-1.4,2.5-3.6,4-6.1,4c-3.4,0-5.4-2.6-5.4-6.4
		c0-7.5,6.7-8.9,13.1-8.9V34.7z M150.5,56.2c-0.6,0.5-1.4,0.6-2.1,0.2c-2.9-2.4-3.5-3.6-5.1-5.9c-4.8,4.9-8.3,6.4-14.5,6.4
		c-7.4,0-13.2-4.6-13.2-13.7c0-7.2,3.9-12,9.4-14.4c4.8-2.1,11.5-2.5,16.6-3.1v-1.1c0-2.1,0.2-4.6-1.1-6.4c-1.1-1.6-3.1-2.3-4.9-2.3
		c-3.4,0-6.4,1.7-7.1,5.3c-0.2,0.8-0.7,1.6-1.5,1.6l-8.5-0.9c-0.7-0.2-1.5-0.7-1.3-1.8c2-10.4,11.3-13.5,19.7-13.5
		c4.3,0,9.9,1.1,13.3,4.4c4.3,4,3.9,9.4,3.9,15.2v13.7c0,4.1,1.7,5.9,3.3,8.2c0.6,0.8,0.7,1.8,0,2.3
		C155.5,51.9,152.3,54.7,150.5,56.2L150.5,56.2z M26.1,34.7c0,3.4,0.1,6.3-1.6,9.4c-1.4,2.5-3.6,4-6.1,4c-3.4,0-5.4-2.6-5.4-6.4
		c0-7.5,6.7-8.9,13.1-8.9V34.7z M34.9,56.2c-0.6,0.5-1.4,0.6-2.1,0.2c-2.9-2.4-3.5-3.6-5.1-5.9c-4.8,4.9-8.3,6.4-14.5,6.4
		C5.8,56.9,0,52.3,0,43.2c0-7.2,3.9-12,9.4-14.4c4.8-2.1,11.5-2.5,16.6-3.1v-1.1c0-2.1,0.2-4.6-1.1-6.4c-1.1-1.6-3.1-2.3-4.9-2.3
		c-3.4,0-6.4,1.7-7.1,5.3c-0.2,0.8-0.7,1.6-1.5,1.6l-8.5-0.9c-0.7-0.2-1.5-0.7-1.3-1.8C3.6,9.7,12.9,6.6,21.3,6.6
		c4.3,0,9.9,1.1,13.3,4.4c4.3,4,3.9,9.4,3.9,15.2v13.7c0,4.1,1.7,5.9,3.3,8.2c0.6,0.8,0.7,1.8,0,2.3C39.9,51.9,36.7,54.7,34.9,56.2
		L34.9,56.2z"/>
</g>
</svg>
