<svg width="31" height="31" viewBox="0 0 31 31" fill="none" xmlns="http://www.w3.org/2000/svg">
<g filter="url(#filter0_d_20_23)">
<path d="M13.375 20.25C13.375 20.6208 13.265 20.9834 13.059 21.2917C12.853 21.6 12.5601 21.8404 12.2175 21.9823C11.8749 22.1242 11.4979 22.1613 11.1342 22.089C10.7705 22.0166 10.4364 21.838 10.1742 21.5758C9.91195 21.3136 9.73337 20.9795 9.66103 20.6158C9.58868 20.2521 9.62581 19.8751 9.76773 19.5325C9.90964 19.1899 10.15 18.897 10.4583 18.691C10.7666 18.485 11.1292 18.375 11.5 18.375C11.9973 18.375 12.4742 18.5725 12.8258 18.9242C13.1775 19.2758 13.375 19.7527 13.375 20.25ZM21.25 18.375C20.8792 18.375 20.5166 18.485 20.2083 18.691C19.9 18.897 19.6596 19.1899 19.5177 19.5325C19.3758 19.8751 19.3387 20.2521 19.411 20.6158C19.4834 20.9795 19.662 21.3136 19.9242 21.5758C20.1864 21.838 20.5205 22.0166 20.8842 22.089C21.2479 22.1613 21.6249 22.1242 21.9675 21.9823C22.3101 21.8404 22.603 21.6 22.809 21.2917C23.015 20.9834 23.125 20.6208 23.125 20.25C23.125 19.7527 22.9275 19.2758 22.5758 18.9242C22.2242 18.5725 21.7473 18.375 21.25 18.375ZM26.0753 7.08094L23.5169 15.3966C23.3535 15.9343 23.0211 16.4051 22.569 16.739C22.1169 17.0729 21.5692 17.2521 21.0072 17.25H11.7747C11.2046 17.2482 10.6505 17.0616 10.1953 16.7183C9.74015 16.3751 9.40848 15.8936 9.25 15.3459L6.04469 4.125H5.125C4.82663 4.125 4.54048 4.00647 4.3295 3.7955C4.11853 3.58452 4 3.29837 4 3C4 2.70163 4.11853 2.41548 4.3295 2.2045C4.54048 1.99353 4.82663 1.875 5.125 1.875H6.32687C6.73407 1.87626 7.12988 2.00951 7.45493 2.25478C7.77998 2.50004 8.01674 2.84409 8.12969 3.23531L8.81312 5.625H25C25.1761 5.62499 25.3497 5.6663 25.5069 5.74561C25.664 5.82492 25.8004 5.94001 25.905 6.08164C26.0096 6.22326 26.0795 6.38746 26.1091 6.56102C26.1387 6.73458 26.1271 6.91266 26.0753 7.08094ZM23.4766 7.875H9.45531L11.4137 14.7281C11.4362 14.8065 11.4835 14.8755 11.5487 14.9245C11.6138 14.9736 11.6931 15.0001 11.7747 15H21.0072C21.0875 15.0002 21.1656 14.9746 21.2303 14.927C21.2949 14.8794 21.3426 14.8123 21.3662 14.7356L23.4766 7.875Z" fill="black"/>
</g>
<defs>
<filter id="filter0_d_20_23" x="0" y="0" width="32" height="32" filterUnits="userSpaceOnUse" color-interpolation-filters="sRGB">
<feFlood flood-opacity="0" result="BackgroundImageFix"/>
<feColorMatrix in="SourceAlpha" type="matrix" values="0 0 0 0 0 0 0 0 0 0 0 0 0 0 0 0 0 0 127 0" result="hardAlpha"/>
<feOffset dy="4"/>
<feGaussianBlur stdDeviation="2"/>
<feComposite in2="hardAlpha" operator="out"/>
<feColorMatrix type="matrix" values="0 0 0 0 0 0 0 0 0 0 0 0 0 0 0 0 0 0 0.25 0"/>
<feBlend mode="normal" in2="BackgroundImageFix" result="effect1_dropShadow_20_23"/>
<feBlend mode="normal" in="SourceGraphic" in2="effect1_dropShadow_20_23" result="shape"/>
</filter>
</defs>
</svg>
