<svg xmlns="http://www.w3.org/2000/svg" xmlns:xlink="http://www.w3.org/1999/xlink" viewBox="0 0 325.5 85.29"><defs><linearGradient id="a" x1="454.68" y1="546.98" x2="473.37" y2="547.13" gradientTransform="matrix(5.57, 0, 0, -5.57, -2198.17, 3516.49)" gradientUnits="userSpaceOnUse"><stop offset="0" stop-color="#ffb900"/><stop offset="0.34" stop-color="#f38000"/><stop offset="0.57" stop-color="#f83c72"/><stop offset="0.78" stop-color="#fc1cbe"/><stop offset="0.93" stop-color="#fe08ed"/><stop offset="1" stop-color="#f0f"/></linearGradient><linearGradient id="b" x1="459.93" y1="540.87" x2="478.98" y2="551.41" gradientTransform="matrix(5.57, 0, 0, -5.57, -2198.17, 3516.49)" gradientUnits="userSpaceOnUse"><stop offset="0" stop-color="#ee0a3f"/><stop offset="1" stop-color="#ee0a3f" stop-opacity="0"/></linearGradient><linearGradient id="c" x1="567.72" y1="544.23" x2="577.02" y2="551.72" gradientTransform="translate(3502.99 3485.58) rotate(180) scale(5.51)" gradientUnits="userSpaceOnUse"><stop offset="0" stop-color="#ed6600"/><stop offset="1" stop-color="#f98200"/></linearGradient></defs><title>Lazada logo</title><path d="M467,439h7.37v35.48h12.71v7H467.06L467,439" transform="translate(-334 -427.02)" style="fill:#000083"/><path d="M504.19,449.59a12.5,12.5,0,0,1,10,4.81v-4.18h6.88v31.27H514.2v-4.18a12.5,12.5,0,0,1-10,4.81c-8.58,0-15.09-7.33-15.09-16.27s6.51-16.26,15.09-16.26m1.25,6.26c-5.57,0-9.26,4.38-9.26,10s3.75,10,9.26,10,9.25-4.38,9.25-10-3.69-10-9.25-10" transform="translate(-334 -427.02)" style="fill:#000083"/><path d="M526.43,476.06l16.4-19.59H526.68v-6.25h25v5.51l-16.33,19.51h16.7v6.25H526.43v-5.43" transform="translate(-334 -427.02)" style="fill:#000083"/><path d="M569.57,449.59a12.49,12.49,0,0,1,10,4.81v-4.18h6.88v31.27h-6.88v-4.18a12.49,12.49,0,0,1-10,4.81c-8.58,0-15.07-7.33-15.07-16.27s6.49-16.26,15.07-16.26m1.25,6.26c-5.57,0-9.25,4.38-9.25,10s3.75,10,9.25,10,9.25-4.38,9.25-10-3.69-10-9.25-10" transform="translate(-334 -427.02)" style="fill:#000083"/><path d="M606.12,449.59a12.45,12.45,0,0,1,10,4.81v-18H623v45.06h-6.88v-4.18a12.45,12.45,0,0,1-10,4.81c-8.58,0-15.09-7.33-15.09-16.27s6.51-16.26,15.09-16.26m1.25,6.26c-5.57,0-9.25,4.38-9.25,10s3.76,10,9.25,10,9.25-4.38,9.25-10-3.69-10-9.25-10" transform="translate(-334 -427.02)" style="fill:#000083"/><path d="M642.64,449.59a12.45,12.45,0,0,1,10,4.81v-4.18h6.86v31.27h-6.89v-4.18a12.45,12.45,0,0,1-10,4.81c-8.58,0-15.09-7.33-15.09-16.27s6.54-16.26,15.12-16.26m1.25,6.26c-5.57,0-9.26,4.38-9.26,10s3.76,10,9.26,10,9.25-4.38,9.25-10-3.69-10-9.25-10" transform="translate(-334 -427.02)" style="fill:#000083"/><path d="M386.55,512.31a4.26,4.26,0,0,1-2.13-.55c-5.56-3.22-46.71-29-48.27-29.81a3.73,3.73,0,0,1-2.13-3v-36.2a3.92,3.92,0,0,1,1.77-3.36l.3-.17c4-2.47,17.31-10.6,19.42-11.77a3.19,3.19,0,0,1,1.6-.45,3.32,3.32,0,0,1,1.51.38s18.65,12.16,21.5,13.24a14.71,14.71,0,0,0,6.39,1.34,14.31,14.31,0,0,0,7.15-1.75c2.79-1.47,20.61-12.77,20.8-12.77a2.81,2.81,0,0,1,1.49-.4,3.13,3.13,0,0,1,1.6.45c2.43,1.34,18.95,11.45,19.65,11.9a3.83,3.83,0,0,1,1.85,3.32v36.2a3.68,3.68,0,0,1-2.13,3c-1.55.85-42.58,26.66-48.25,29.81a4.26,4.26,0,0,1-2.13.6" transform="translate(-334 -427.02)" style="fill:url(#a)"/><path d="M386.34,512.31h.21a4.26,4.26,0,0,0,2.13-.55c5.56-3.22,46.69-29,48.25-29.81a3.68,3.68,0,0,0,2.13-3v-36.2a3.87,3.87,0,0,0-.4-1.77l-52.31,28.72v42.58" transform="translate(-334 -427.02)" style="fill:url(#b)"/><path d="M386.16,511.8h-.21a4.21,4.21,0,0,1-2.11-.55c-5.5-3.18-46.19-28.71-47.73-29.49a3.64,3.64,0,0,1-2.11-2.95V443a3.83,3.83,0,0,1,.4-1.75l51.76,28.42V511.8" transform="translate(-334 -427.02)" style="fill:url(#c)"/></svg>