<svg id="Layer_1_copy_3" data-name="Layer 1 copy 3" xmlns="http://www.w3.org/2000/svg" viewBox="0 0 313.29 335.21"><ellipse cx="156.85" cy="155.85" rx="146.6" ry="145.8" style="fill:#fff"/><path d="M47.71,241.82v-9.24l19-6.89a7.7,7.7,0,0,0,3.32-2,5.53,5.53,0,0,0,1.36-4V86.45a5.52,5.52,0,0,0-1.29-3.94,7.6,7.6,0,0,0-3.39-2l-19-6.28v-9h63.4l41.25,116.58,6.15,21.42h2l47.64-138h62.54v9L252,80.54a8.74,8.74,0,0,0-3.45,2A5.15,5.15,0,0,0,247,86.45v134a5.53,5.53,0,0,0,1.35,4.06,8.92,8.92,0,0,0,3.57,2.09l18.71,6v9.24H197.78v-9.24l18.72-6a8,8,0,0,0,3.5-2,5.56,5.56,0,0,0,1.42-4.12V78.7h-2.34L213.3,96.92l-42,117.57-11.69,27.33H147.06L95.72,97,90.06,78.7h-2v141a5.28,5.28,0,0,0,1.36,4,9.62,9.62,0,0,0,3.32,2l18.59,6.89v9.24Z"/><rect x="13.45" y="138.05" width="287.34" height="32.5" style="fill:#fff"/><path d="M26,165.25v-1.2l2.37-.9a.91.91,0,0,0,.42-.26.77.77,0,0,0,.17-.52V145.05a.78.78,0,0,0-.16-.51.88.88,0,0,0-.43-.25L26,143.47V142.3h7.93l5.16,15.15.77,2.79h.24l6-17.94h7.82v1.17l-2.34.82a1.06,1.06,0,0,0-.43.26.68.68,0,0,0-.18.5v17.41a.75.75,0,0,0,.16.53,1.13,1.13,0,0,0,.45.27l2.34.79v1.2H44.75v-1.2l2.34-.79a1,1,0,0,0,.44-.26.78.78,0,0,0,.17-.54V144.05h-.29l-.72,2.36-5.25,15.28L40,165.25H38.41L32,146.43l-.71-2.38H31v18.32a.74.74,0,0,0,.17.52,1.11,1.11,0,0,0,.42.26l2.32.9v1.2Z"/><path d="M57.91,165.25v-1.2l1.57-.72a1.51,1.51,0,0,0,.78-.88l6.27-16.68L68.35,142h1.74l7.77,20.54a2.32,2.32,0,0,0,.3.52.93.93,0,0,0,.44.36l1.63.68v1.2H72.07v-1.2l2.59-.93-5.51-14.67-.6-2.16h-.27L62.2,163l2.62,1v1.2Zm6.16-8.05.75-2.23h7.1l.75,2.23Z"/><path d="M84.26,165.25v-1.2l2.37-.79a.89.89,0,0,0,.43-.26.77.77,0,0,0,.16-.54V145.05a.73.73,0,0,0-.17-.51.89.89,0,0,0-.42-.25l-2.37-.82V142.3h9a13.77,13.77,0,0,1,4.12.51,6.41,6.41,0,0,1,2.47,1.36,4.57,4.57,0,0,1,1.2,1.88,6.67,6.67,0,0,1,.33,2.06,6.16,6.16,0,0,1-.8,3.21,6.55,6.55,0,0,1-2,2.12,7.25,7.25,0,0,1-2.35,1.05l-2.5,1.06-3.54-.75.14-1.71a4.69,4.69,0,0,0,.66.1c.35,0,.72.07,1.12.09l.93,0a5.37,5.37,0,0,0,2.74-.63A4.1,4.1,0,0,0,97.42,151a4.91,4.91,0,0,0,.53-2.23,4.24,4.24,0,0,0-1.32-3.48,6,6,0,0,0-3.88-1.08h-2.3v18.24a.78.78,0,0,0,.17.54.91.91,0,0,0,.42.26l2.43.79v1.2Zm21.48,0H102a4.9,4.9,0,0,1-1.54-.19,2,2,0,0,1-.86-.63c-.23-.3-.54-.71-.91-1.25l-5.52-7.92,3.12-1,5.81,8a3.73,3.73,0,0,0,.54.62,1.85,1.85,0,0,0,.72.46l2.37.72Z"/><path d="M109.54,165.25v-1.2l2.37-.79a.82.82,0,0,0,.42-.26.78.78,0,0,0,.17-.54V145.05a.73.73,0,0,0-.17-.51.8.8,0,0,0-.42-.25l-2.37-.82V142.3h9.14v1.17l-2.35.82a.89.89,0,0,0-.43.26.72.72,0,0,0-.17.5v9.06l8.7-9.78-1.45-.86V142.3h7.14v1.17l-2.38.8a3.29,3.29,0,0,0-.64.3,3,3,0,0,0-.66.55L120.1,152l7.44,10.32a5.84,5.84,0,0,0,.5.59,1.58,1.58,0,0,0,.59.42l2.2.75v1.14h-7.74v-1.14l1.24-.74-6.46-9.12-2.14,1.28v6.93a.77.77,0,0,0,.16.54.88.88,0,0,0,.44.26l2.35.79v1.2Z"/><path d="M147.27,165.25v-1.2l2.37-.79a1,1,0,0,0,.42-.26.78.78,0,0,0,.17-.54V145.05a.78.78,0,0,0-.16-.51.88.88,0,0,0-.43-.25l-2.37-.82V142.3h8.9a12.68,12.68,0,0,1,4.12.64,6.33,6.33,0,0,1,3,2,5.49,5.49,0,0,1,1.1,3.58,8,8,0,0,1-1,4,6.63,6.63,0,0,1-2.64,2.61,7.91,7.91,0,0,1-3.85.91,5.6,5.6,0,0,1-1.84-.37,7.43,7.43,0,0,1-1.74-.84v-1.19a6.43,6.43,0,0,0,1.43.24c.61.06,1.19.08,1.72.08a4.37,4.37,0,0,0,2.33-.54,3.76,3.76,0,0,0,1.32-1.34,4.89,4.89,0,0,0,.59-1.57,6.35,6.35,0,0,0-.3-3.73,3.87,3.87,0,0,0-1.61-1.87,6.34,6.34,0,0,0-3.28-.71h-2v18.24a.73.73,0,0,0,.18.54,1,1,0,0,0,.42.26l2.51.79v1.2Z"/><path d="M169.79,165.25v-1.2l2.37-.79a.89.89,0,0,0,.43-.26.83.83,0,0,0,.16-.54V145.05a.73.73,0,0,0-.17-.51.89.89,0,0,0-.42-.25l-2.37-.82V142.3h17.14V148h-1.82l-.6-3.15a.77.77,0,0,0-.23-.44.59.59,0,0,0-.43-.16H176v8.08h4.73a.65.65,0,0,0,.45-.13.79.79,0,0,0,.21-.44l.55-2.53h1.48v8.18h-1.48l-.55-2.52a.86.86,0,0,0-.21-.45.61.61,0,0,0-.45-.15H176v9h9.07a.59.59,0,0,0,.41-.16.74.74,0,0,0,.22-.44l.61-3.52h1.81v6.08Z"/><path d="M194,165.25v-1.2l2.37-.79a.93.93,0,0,0,.41-.26.73.73,0,0,0,.17-.54V145.05a.69.69,0,0,0-.17-.51.91.91,0,0,0-.41-.25l-2.37-.82V142.3h10.1a13.78,13.78,0,0,1,2.82.32,11.79,11.79,0,0,1,3,1.09,9.42,9.42,0,0,1,2.66,2.1,10,10,0,0,1,1.91,3.31,13.94,13.94,0,0,1,.71,4.75,12.45,12.45,0,0,1-1.5,6.44,9.32,9.32,0,0,1-4,3.73,12.92,12.92,0,0,1-5.61,1.21Zm6.19-21v19.11h3.92q3.87,0,5.67-2.36a10.66,10.66,0,0,0,1.8-6.62,12.91,12.91,0,0,0-1-5.4,8.11,8.11,0,0,0-2.93-3.5,8,8,0,0,0-4.45-1.23Z"/><path d="M231.38,165.77a10.8,10.8,0,0,1-5.79-1.47,9.35,9.35,0,0,1-3.62-4.17,15.08,15.08,0,0,1-1.24-6.39,14.31,14.31,0,0,1,1.28-6.18,10,10,0,0,1,3.67-4.24,10.36,10.36,0,0,1,5.73-1.55,10.55,10.55,0,0,1,6,1.58,9.54,9.54,0,0,1,3.51,4.28,15.59,15.59,0,0,1,1.14,6.11,16.06,16.06,0,0,1-.61,4.43,11.87,11.87,0,0,1-1.91,3.87,9.21,9.21,0,0,1-3.3,2.73A10.82,10.82,0,0,1,231.38,165.77Zm.28-1.88a5.9,5.9,0,0,0,3.79-1.22,7.28,7.28,0,0,0,2.28-3.38,15,15,0,0,0,.77-5,17.6,17.6,0,0,0-.81-5.65,7.7,7.7,0,0,0-2.45-3.68,6.45,6.45,0,0,0-4.15-1.3,5.72,5.72,0,0,0-3.9,1.3,7.41,7.41,0,0,0-2.2,3.45,15.29,15.29,0,0,0-.7,4.76,17.94,17.94,0,0,0,.79,5.62,7.87,7.87,0,0,0,2.43,3.75A6.33,6.33,0,0,0,231.66,163.89Z"/><path d="M247.73,165.25v-1.2l2.37-.9a1.09,1.09,0,0,0,.43-.27.78.78,0,0,0,.16-.51v-17.3a.73.73,0,0,0-.17-.51,1,1,0,0,0-.42-.26l-2.46-.83V142.3H254l10.68,15.83,1.19,2.06h.24V145.13a.59.59,0,0,0-.18-.48,1.31,1.31,0,0,0-.43-.25l-2.34-.93V142.3h8v1.17l-2.36.93a1.26,1.26,0,0,0-.4.25.6.6,0,0,0-.2.48v16.56l-.46,3.72h-1.83l-11.63-17.16L253,146.16h-.25v16.21a.65.65,0,0,0,.19.52,1,1,0,0,0,.4.26l2.32.9v1.2Z"/><path d="M292.28,162.78v-5.53a.74.74,0,0,0-.16-.52.93.93,0,0,0-.41-.24l-3-.81v-1.17H298v1.17l-2,.81a1.7,1.7,0,0,0-.39.25.63.63,0,0,0-.19.51v2.62c0,1,0,1.86,0,2.57s0,1.27.07,1.69a30.46,30.46,0,0,1-3.93,1.14,20.44,20.44,0,0,1-4.54.5,10.57,10.57,0,0,1-5.32-1.37,10,10,0,0,1-3.87-4,15.16,15.16,0,0,1,0-12.9,10.39,10.39,0,0,1,3.92-4.17,10.78,10.78,0,0,1,5.63-1.48,26.31,26.31,0,0,1,2.73.13c.86.09,1.71.23,2.56.4s1.74.39,2.65.65v5.86h-1.81l-.57-3.32a.59.59,0,0,0-.27-.4,2.16,2.16,0,0,0-.43-.25,12.26,12.26,0,0,0-2.44-.82,12.41,12.41,0,0,0-2.7-.3,6.45,6.45,0,0,0-6.24,4.14,13.34,13.34,0,0,0-.9,5.27,15.45,15.45,0,0,0,.92,5.53,8.47,8.47,0,0,0,2.68,3.76,6.72,6.72,0,0,0,4.25,1.36,8.83,8.83,0,0,0,1.91-.19,10.93,10.93,0,0,0,1.53-.44C291.73,163,292.06,162.89,292.28,162.78Z"/></svg>